<?xml version="1.0" standalone="no"?>
<!DOCTYPE svg PUBLIC "-//W3C//DTD SVG 20010904//EN"
 "http://www.w3.org/TR/2001/REC-SVG-20010904/DTD/svg10.dtd">
<svg version="1.0" xmlns="http://www.w3.org/2000/svg"
 width="1152.000000pt" height="1152.000000pt" viewBox="0 0 1152.000000 1152.000000"
 preserveAspectRatio="xMidYMid meet">
<metadata>
Created by potrace 1.14, written by Peter Selinger 2001-2017
</metadata>
<g transform="translate(0.000000,1152.000000) scale(0.100000,-0.100000)"
fill="#000000" stroke="none">
<path d="M10838 10154 c-2 -1 -19 -4 -38 -7 -57 -9 -75 -14 -131 -38 -52 -22
-120 -66 -127 -81 -2 -5 -8 -8 -13 -8 -6 0 -20 -10 -33 -22 -12 -13 -53 -50
-91 -83 -68 -60 -83 -73 -140 -122 -43 -37 -178 -156 -191 -168 -6 -5 -33 -29
-61 -52 -27 -23 -63 -55 -80 -70 -17 -15 -56 -50 -88 -78 -32 -27 -63 -54 -69
-60 -6 -5 -45 -39 -86 -75 -41 -35 -84 -74 -95 -85 -11 -11 -29 -27 -41 -35
-17 -12 -91 -77 -178 -155 -20 -18 -159 -140 -183 -160 -13 -11 -40 -35 -59
-52 -38 -35 -50 -40 -52 -20 -1 13 -16 95 -26 137 -3 14 -8 34 -10 45 -2 11
-16 52 -31 90 -14 39 -27 75 -28 80 -5 22 -101 210 -109 213 -4 2 -8 10 -8 18
0 8 -4 14 -10 14 -5 0 -10 5 -10 11 0 18 -115 162 -187 235 -76 76 -155 144
-184 158 -11 5 -19 13 -19 18 0 4 -5 8 -10 8 -6 0 -20 8 -31 18 -34 33 -273
151 -339 167 -3 1 -12 5 -20 8 -24 10 -165 47 -199 52 -17 3 -46 7 -63 10 -18
3 -65 7 -104 9 -39 2 -76 6 -82 10 -6 3 -13 2 -17 -3 -4 -7 -15 -7 -30 -1 -15
6 -25 6 -25 0 0 -5 -12 -5 -30 0 -17 5 -30 5 -30 0 0 -5 -13 -5 -30 0 -17 5
-32 5 -35 0 -3 -5 -16 -6 -28 -2 -27 9 -58 9 -72 0 -6 -4 -17 -3 -25 2 -8 5
-21 5 -31 -1 -11 -6 -20 -5 -24 1 -3 5 -15 6 -28 1 -12 -5 -32 -5 -44 0 -13 5
-25 4 -28 -1 -3 -6 -15 -6 -30 0 -13 5 -27 5 -29 1 -6 -9 -61 -6 -76 4 -5 3
-11 1 -15 -4 -3 -7 -15 -7 -30 -1 -15 6 -27 6 -30 0 -4 -6 -14 -6 -28 2 -12 6
-24 10 -27 8 -22 -12 -50 -18 -55 -10 -3 6 -15 6 -30 0 -13 -5 -27 -6 -29 -1
-3 4 -26 5 -51 1 -25 -4 -45 -4 -45 -1 0 3 -13 6 -30 6 -16 0 -30 -3 -30 -7 0
-4 -6 -5 -12 -3 -23 9 -109 11 -114 3 -3 -4 -15 -4 -27 1 -12 4 -33 5 -47 1
-14 -4 -32 -3 -41 1 -8 4 -21 4 -29 -1 -8 -5 -21 -5 -30 0 -9 5 -22 5 -29 0
-8 -4 -27 -4 -42 0 -16 5 -29 5 -29 0 0 -5 -13 -5 -30 0 -17 5 -32 5 -35 0 -3
-5 -16 -6 -28 -2 -27 9 -58 9 -72 0 -6 -4 -17 -3 -25 2 -8 5 -21 5 -31 -1 -11
-6 -20 -5 -24 1 -3 5 -15 6 -28 1 -12 -5 -32 -5 -44 0 -13 5 -25 4 -28 -1 -3
-6 -15 -6 -30 0 -13 5 -27 5 -29 1 -6 -9 -61 -6 -76 4 -5 3 -11 1 -15 -4 -3
-7 -15 -7 -30 -1 -15 6 -27 6 -30 0 -4 -6 -14 -6 -28 2 -12 6 -22 11 -22 10 0
-7 -56 -19 -60 -12 -3 6 -15 6 -30 0 -14 -5 -27 -5 -30 0 -3 5 -18 5 -34 0
-15 -4 -34 -4 -41 0 -7 5 -24 4 -36 0 -14 -6 -26 -5 -29 0 -3 5 -15 6 -28 1
-12 -5 -34 -5 -49 0 -16 4 -28 4 -28 -1 0 -5 -13 -5 -30 0 -18 5 -32 5 -36 -1
-3 -5 -12 -6 -21 0 -9 5 -29 5 -45 1 -15 -5 -30 -5 -33 0 -3 6 -16 5 -29 0
-13 -5 -27 -6 -30 -3 -8 9 -76 9 -76 1 0 -4 -11 -3 -25 2 -15 6 -27 6 -30 0
-3 -5 -12 -7 -20 -4 -22 9 -245 10 -245 2 0 -4 -11 -3 -25 2 -15 6 -26 6 -30
-1 -4 -5 -13 -6 -21 -1 -9 5 -36 6 -60 2 -25 -4 -47 -3 -50 1 -2 5 -15 4 -28
-1 -13 -5 -27 -6 -30 -3 -8 9 -76 9 -76 1 0 -4 -11 -3 -25 2 -15 6 -27 6 -30
0 -3 -5 -12 -7 -20 -4 -22 9 -245 10 -245 2 0 -4 -11 -3 -25 2 -15 6 -26 6
-30 -1 -4 -5 -11 -6 -17 -3 -13 8 -92 9 -104 1 -6 -3 -16 -2 -24 3 -8 5 -21 5
-31 -1 -11 -6 -20 -5 -24 1 -3 5 -15 6 -28 1 -12 -5 -32 -5 -44 0 -13 5 -25 4
-28 -1 -3 -6 -15 -6 -30 0 -13 5 -27 5 -29 1 -6 -9 -61 -6 -76 4 -5 3 -11 1
-15 -4 -3 -7 -15 -7 -30 -1 -15 6 -27 6 -30 0 -4 -6 -14 -6 -28 2 -12 6 -22
11 -22 10 0 -7 -56 -19 -60 -12 -3 6 -15 6 -30 0 -14 -5 -27 -5 -30 0 -3 5
-18 5 -34 0 -15 -4 -34 -4 -42 0 -7 5 -20 5 -29 0 -8 -4 -22 -4 -31 0 -8 5
-21 5 -28 0 -8 -4 -27 -4 -42 0 -16 5 -29 5 -29 0 0 -5 -13 -5 -30 0 -17 5
-32 5 -35 0 -3 -5 -16 -6 -28 -2 -27 9 -58 9 -72 0 -6 -4 -17 -3 -25 2 -8 5
-21 5 -31 -1 -11 -6 -20 -5 -24 1 -3 5 -15 6 -28 1 -12 -5 -32 -5 -44 0 -13 5
-25 4 -28 -1 -3 -6 -15 -6 -30 0 -13 5 -27 5 -29 1 -6 -9 -61 -6 -76 4 -5 3
-11 1 -15 -4 -3 -7 -15 -7 -30 -1 -15 6 -27 6 -30 0 -4 -6 -14 -6 -28 2 -12 6
-22 11 -22 10 0 -7 -56 -19 -60 -12 -3 6 -15 6 -30 0 -14 -5 -27 -5 -30 0 -3
5 -18 5 -34 0 -15 -4 -34 -4 -42 0 -7 5 -20 5 -29 0 -8 -4 -22 -4 -31 0 -8 5
-21 5 -28 0 -8 -4 -27 -4 -42 0 -16 5 -29 5 -29 0 0 -5 -13 -5 -30 0 -17 5
-32 5 -35 0 -3 -5 -16 -6 -28 -2 -27 9 -58 9 -72 0 -6 -4 -17 -3 -25 2 -8 5
-21 5 -31 -1 -11 -6 -20 -5 -24 1 -3 5 -15 6 -28 1 -12 -5 -32 -5 -44 0 -13 5
-25 4 -28 -1 -3 -6 -15 -6 -30 0 -13 5 -26 6 -29 2 -5 -9 -64 -7 -73 1 -3 3
-16 2 -29 -3 -14 -6 -26 -6 -29 1 -4 5 -11 6 -17 3 -5 -4 -40 -8 -76 -10 -37
-2 -80 -6 -97 -9 -16 -2 -48 -7 -70 -10 -69 -10 -236 -62 -309 -96 -22 -10
-43 -16 -48 -13 -4 3 -8 1 -8 -4 0 -6 -11 -13 -24 -16 -14 -3 -31 -12 -38 -19
-7 -6 -33 -22 -58 -35 -113 -59 -306 -222 -409 -347 -29 -34 -99 -136 -138
-200 -66 -107 -155 -340 -168 -440 -1 -11 -3 -20 -4 -20 -4 0 -10 -34 -19 -90
-9 -63 -9 -6126 0 -6180 4 -22 10 -58 13 -80 22 -142 117 -392 189 -498 15
-21 26 -41 26 -46 0 -4 9 -16 20 -26 11 -10 20 -24 20 -31 0 -7 3 -14 8 -16 4
-2 25 -25 46 -53 43 -54 212 -225 224 -225 4 0 24 -16 45 -35 21 -19 41 -35
45 -35 4 0 34 -18 67 -40 33 -22 65 -40 71 -40 7 0 14 -4 16 -8 8 -20 254
-119 338 -136 14 -3 36 -7 50 -10 56 -12 77 -16 120 -24 57 -9 6400 -9 6460 0
25 4 55 9 67 12 11 2 42 8 67 11 26 4 49 11 52 16 3 5 9 7 14 4 5 -3 26 2 47
10 21 9 45 18 53 20 59 13 215 88 315 153 39 25 71 44 73 43 1 0 10 7 20 17
10 9 30 26 46 37 56 40 246 237 246 255 0 4 7 14 16 21 18 15 81 110 80 120
-1 4 6 15 15 25 20 23 109 207 109 226 0 8 5 19 12 26 7 7 9 12 5 12 -3 0 2
20 13 44 10 24 16 47 13 49 -3 3 -1 12 3 19 5 7 9 18 10 23 1 6 7 35 13 65 6
30 14 71 17 90 4 19 8 1085 9 2369 l3 2335 43 38 c24 21 47 38 52 38 4 0 5 5
2 10 -3 6 -3 10 2 10 9 0 66 46 118 95 18 17 56 50 86 75 29 25 60 52 69 60 9
8 47 42 85 75 38 33 77 67 85 75 9 8 30 26 46 40 58 50 248 215 264 230 9 8
43 38 76 67 32 28 70 61 84 73 14 12 49 43 79 68 61 53 102 89 146 130 17 15
62 54 100 87 39 33 72 62 75 65 3 3 57 50 120 105 63 54 125 109 137 122 12
13 25 23 29 23 4 0 14 8 23 18 9 10 45 42 81 72 35 30 77 67 92 83 15 15 30
27 32 27 3 0 18 12 34 28 16 15 55 50 87 77 198 169 268 271 293 430 15 99 -7
271 -41 307 -6 8 -13 20 -15 28 -11 52 -135 188 -203 224 -13 7 -33 17 -44 23
-18 11 -48 23 -67 28 -5 2 -10 4 -13 5 -3 1 -8 3 -12 4 -60 15 -82 18 -138 20
-36 2 -66 2 -67 0z"/>
</g>
</svg>
